<?xml version="1.0" encoding="UTF-8"?>
<!-- Generator: Adobe Illustrator 15.0.2, SVG Export Plug-In . SVG Version: 6.00 Build 0)  -->
<!DOCTYPE svg PUBLIC "-//W3C//DTD SVG 1.1//EN" "http://www.w3.org/Graphics/SVG/1.1/DTD/svg11.dtd">
<svg xmlns="http://www.w3.org/2000/svg" xmlns:xlink="http://www.w3.org/1999/xlink" version="1.1" id="Layer_1" x="0px" y="0px" width="1024px" height="1024px" viewBox="0 0 1024 1024" enable-background="new 0 0 1024 1024" xml:space="preserve">
<path d="M1019.2,712.6c-6.4-6-16.4-6-23,0L939.6,770.4H787.4V701H916.6c12.4,0,24.601-1,36.2-3.2  c11.8-2.399,21.601-8.399,29.601-18.6c6.8-8,10.199-19,10.199-33.8c0-10.2-3-23-8.6-38.801L935,490c-15.6-35.8-36.2-61-61.6-75  c-25.2-14.4-52-21.2-80.2-21.2H597.4V301H654.8c3.4,5.8,7.601,9.4,12,11c4.4,1.8,8.2,2.6,11.601,2.6H954c9,0,15.6-2.6,20-7.6  s7.4-11,8.4-17.8c0-5.8-2.2-11.4-6.601-16.8c-4.6-5.8-11.8-8.6-21.8-8.6H688.8c-12.399,0-20.399,1.6-24.399,4.2  c-4,3-7.2,6.4-9.4,11.2H498c-2.2-2.4-4.6-5.2-7.6-8.6c-2.601-3.4-8-5-16-5H195.8c-4.4,0-9.6,2-16.2,6c-6,4-9.2,10.4-9.2,19.6  c0,8.8,3,15.8,9.2,20c6.4,4.6,11.4,6.8,14.6,6.8H474.6c2.2,0,5.801-1,11-2.6c5-1.6,9.2-5.8,12.601-12.8h59.2v91.2h-353  c-7.8-19.2-20.6-35.4-38-48.2c-17.6-13-37.4-19.4-60-19.4c-29.2,0-54.2,10.4-75.2,31.2C10.2,378.2,0,403.2,0,432.6  c0,29.2,10.2,54,31.2,74.2c21,20.4,45.8,30.4,75.2,30.4c33.6,0,60.2-12.4,79.2-37.2l229.8,86.2L445.8,662  c4.4,9.2,10.4,17.8,17.8,26.4c7.4,8.399,23,12.6,46.601,12.6H612v69.4H445.6c-9,0-16.399,7.199-16.399,16.199  s7.399,16.2,16.399,16.2H947.4c5,0,9.199-2.6,11.8-6.399l60-60.601C1025.6,729.2,1025.6,719,1019.2,712.6z M832.4,441.2  c14.6,4.2,27.199,11.399,37.8,21c10.8,9.6,20.6,24.6,29.8,44.8c2.2,6.8,5,14.2,8.4,22c3.199,7.6,6.6,16.2,10,25.2h-86V441.2z   M87,459.8c8.2,5.601,17,10,26.2,13.2l33.8,13.6c-12.6,9-26.2,13.4-40.6,13.4c-19.2,0-35.6-6.4-49.2-19.4c-13.4-13-20-28.8-20-48  c0-19.399,6.6-35.199,20-48.2c13.6-13,30-19.4,49.2-19.4c23.6,0,42,9.4,55.8,28.6h-47.4c-11.2,0-20.8,3.2-28.6,10.2  C78.4,410.4,74.6,420,74.6,432.4C74.4,445,78.6,454,87,459.8z M714,436h76v116.6h-76V436z M597.6,554.2V437.6H672V554.2H597.6z   M760.6,770.4H638.8V701h121.8V770.4z" fill="#000000"/>
</svg>
